<svg width="95" height="74" viewBox="0 0 95 74" fill="none" xmlns="http://www.w3.org/2000/svg">
<path d="M30.7303 34.4037C37.9739 37.4329 42.364 43.9242 42.364 52.7956C42.364 65.3453 33.3644 73.5676 21.2917 73.5676C8.9996 73.5676 0 65.1289 0 52.7956C0 47.1698 0.878009 43.0587 5.92656 31.158L18.6577 0H40.3884L30.7303 34.4037ZM82.5329 34.4037C89.7765 37.4329 94.1665 43.9242 94.1665 52.7956C94.1665 65.3453 85.1669 73.5676 73.0943 73.5676C60.8022 73.5676 51.8026 65.1289 51.8026 52.7956C51.8026 47.1698 52.6806 43.0587 57.7291 31.158L70.4603 0H92.191L82.5329 34.4037Z" fill="#68F2D7"/>
</svg>
